<?xml version="1.0" encoding="UTF-8" standalone="no"?>
<!-- Created with Inkscape (http://www.inkscape.org/) -->
<svg
   xmlns:svg="http://www.w3.org/2000/svg"
   xmlns="http://www.w3.org/2000/svg"
   version="1.0"
   width="744.09448"
   height="325.27557"
   id="svg2434">
  <defs
     id="defs2436" />
  <g
     transform="translate(-558.65871,255.34858)"
     id="layer1">
    <g
       transform="matrix(1.5345427,0,0,1.5345427,378.87046,-641.43124)"
       id="g4364">
      <path
         d="M 128.98154,442.61164 C 127.7301,449.11912 130.79612,452.06 137.05332,452.06 C 144.62452,452.06 147.81568,447.93025 148.87941,442.61164 L 153.44716,419.77289 L 146.06367,419.77289 L 141.37078,443.3625 C 141.05792,444.73909 140.18191,446.36596 138.17961,446.36596 C 136.11474,446.36596 135.92702,445.11452 136.23988,443.61279 L 140.99535,419.77289 L 133.54929,419.77289 L 128.98154,442.61164 z M 165.58611,451.30914 L 173.15731,451.30914 L 179.47707,419.77289 L 172.40645,419.77289 L 169.65328,437.41817 L 169.52814,437.41817 L 167.33812,419.77289 L 159.70435,419.77289 L 153.38458,451.30914 L 160.39264,451.30914 L 163.27095,433.72643 L 163.33352,433.66386 L 165.58611,451.30914 z M 187.23599,451.30914 L 193.49318,419.77289 L 186.1097,419.77289 L 179.78993,451.30914 L 187.23599,451.30914 z M 208.07244,451.30914 L 221.27511,419.77289 L 213.89162,419.77289 L 205.63213,441.92335 L 205.56956,441.92335 L 206.19528,419.77289 L 198.81179,419.77289 L 199.37494,451.30914 L 208.07244,451.30914 z M 237.54381,451.30914 L 238.79525,444.98937 L 228.72117,444.98937 L 230.09775,438.16904 L 239.35839,438.16904 L 240.60983,431.84927 L 231.34919,431.84927 L 232.47548,426.09266 L 242.04898,426.09266 L 243.30042,419.77289 L 226.34343,419.77289 L 220.08624,451.30914 L 237.54381,451.30914 z M 256.19024,425.46694 C 259.81941,425.34179 261.38371,425.52951 260.63284,429.28382 C 260.19484,431.22355 259.31883,433.16328 257.19139,433.16328 L 254.62594,433.16328 L 256.19024,425.46694 z M 253.49964,438.85733 L 255.93995,438.85733 C 257.62939,438.98247 258.00482,440.23391 257.81711,442.17364 C 257.62939,444.11337 256.9411,446.74139 256.5031,449.49455 C 256.44052,450.12027 256.5031,450.74599 256.56567,451.30914 L 264.63745,451.30914 L 264.76259,450.87113 C 264.44973,450.62085 264.32459,450.24541 264.26201,449.80741 C 264.19944,447.80511 265.26316,442.36135 265.57602,439.85848 C 265.88888,437.66846 264.70002,436.22931 262.69772,435.72873 L 262.76029,435.66616 C 266.13917,434.227 267.39061,431.84927 268.0789,428.47039 C 269.33034,422.2132 266.76489,419.77289 260.75799,419.77289 L 249.93305,419.77289 L 243.61328,451.30914 L 250.99677,451.30914 L 253.49964,438.85733 z M 270.70692,440.73448 L 270.01863,444.11337 C 269.20519,448.30569 271.33264,452.06 278.09041,452.06 C 284.22245,452.06 288.28963,448.74369 289.47849,442.67421 C 290.22936,438.79475 289.66621,436.72988 288.22706,435.10301 C 286.85047,433.53871 284.66046,432.41242 282.22015,430.66041 C 280.96871,429.65926 280.21785,428.6581 280.781,426.78095 C 281.219,425.40437 282.28272,424.59093 283.78445,424.6535 C 286.16218,424.84122 285.59904,427.40667 285.28618,429.22125 L 292.10651,429.22125 C 293.67081,423.27692 291.23051,419.02203 284.7856,419.02203 C 279.02899,419.02203 274.89924,422.02548 273.71037,427.96981 C 273.14723,430.72298 273.52266,432.66271 274.58638,434.28958 C 275.6501,435.85387 277.33954,437.10531 279.34184,438.41932 C 281.03129,439.60819 283.03359,440.60934 282.53301,443.23736 C 282.15758,444.86423 281.09386,446.36596 279.40442,446.36596 C 277.02668,446.36596 276.7764,444.80166 277.15183,442.98707 L 277.58983,440.73448 L 270.70692,440.73448 z M 299.49,451.30914 L 301.61745,445.17709 L 307.37406,445.17709 L 307.24892,451.30914 L 314.69498,451.30914 L 314.1944,419.77289 L 305.24662,419.77289 L 292.04394,451.30914 L 299.49,451.30914 z M 307.81206,439.60819 L 303.4946,439.60819 L 308.50036,425.46694 L 308.56293,425.46694 L 307.81206,439.60819 z M 335.71914,451.30914 L 337.03315,444.98937 L 327.96022,444.98937 L 333.02855,419.77289 L 325.58249,419.77289 L 319.26272,451.30914 L 335.71914,451.30914 z M 355.11643,440.73448 L 354.42814,444.11337 C 353.6147,448.30569 355.67958,452.06 362.49992,452.06 C 368.63196,452.06 372.63657,448.74369 373.888,442.67421 C 374.63887,438.79475 374.01315,436.72988 372.63657,435.10301 C 371.25998,433.53871 369.06997,432.41242 366.62966,430.66041 C 365.37822,429.65926 364.56479,428.6581 365.19051,426.78095 C 365.62851,425.40437 366.69223,424.59093 368.13139,424.6535 C 370.57169,424.84122 369.94597,427.40667 369.69569,429.22125 L 376.51602,429.22125 C 378.01775,423.27692 375.57745,419.02203 369.19511,419.02203 C 363.43849,419.02203 359.24618,422.02548 358.05731,427.96981 C 357.49416,430.72298 357.93217,432.66271 358.99589,434.28958 C 360.05961,435.85387 361.74905,437.10531 363.75135,438.41932 C 365.4408,439.60819 367.4431,440.60934 366.87995,443.23736 C 366.56709,444.86423 365.50337,446.36596 363.75135,446.36596 C 361.43619,446.36596 361.18591,444.80166 361.49877,442.98707 L 361.93677,440.73448 L 355.11643,440.73448 z M 395.47531,451.30914 L 396.72675,444.98937 L 386.65267,444.98937 L 388.02926,438.16904 L 397.2899,438.16904 L 398.54134,431.84927 L 389.28069,431.84927 L 390.46956,426.09266 L 399.98049,426.09266 L 401.23193,419.77289 L 384.27494,419.77289 L 377.95518,451.30914 L 395.47531,451.30914 z M 414.12174,425.46694 C 417.75092,425.34179 419.25264,425.52951 418.56435,429.28382 C 418.12635,431.22355 417.25034,433.16328 415.12289,433.16328 L 412.55745,433.16328 L 414.12174,425.46694 z M 411.43115,438.85733 L 413.87146,438.85733 C 415.5609,438.98247 415.93633,440.23391 415.74861,442.17364 C 415.5609,444.11337 414.87261,446.74139 414.4346,449.49455 C 414.37203,450.12027 414.4346,450.74599 414.49718,451.30914 L 422.56895,451.30914 L 422.6941,450.87113 C 422.38124,450.62085 422.25609,450.24541 422.19352,449.80741 C 422.13095,447.80511 423.19467,442.36135 423.50753,439.85848 C 423.82039,437.66846 422.63152,436.22931 420.62922,435.72873 L 420.69179,435.66616 C 424.07068,434.227 425.32212,431.84927 426.01041,428.47039 C 427.26185,422.2132 424.6964,419.77289 418.68949,419.77289 L 407.86455,419.77289 L 401.54479,451.30914 L 408.92828,451.30914 L 411.43115,438.85733 z M 435.39619,451.30914 L 441.71596,419.77289 L 434.33247,419.77289 L 428.01271,451.30914 L 435.39619,451.30914 z M 448.03572,451.30914 L 450.16317,445.17709 L 455.98235,445.17709 L 455.79464,451.30914 L 463.30327,451.30914 L 462.74012,419.77289 L 453.85491,419.77289 L 440.65223,451.30914 L 448.03572,451.30914 z M 456.35778,439.60819 L 452.10289,439.60819 L 457.04608,425.46694 L 457.17122,425.46694 L 456.35778,439.60819 z M 484.32743,451.30914 L 485.57887,444.98937 L 476.56851,444.98937 L 481.57427,419.77289 L 474.19078,419.77289 L 467.87102,451.30914 L 484.32743,451.30914 z M 512.86022,437.85618 C 515.98882,437.98132 518.11626,437.91875 517.3654,441.54792 C 516.55196,445.80281 514.98767,445.55252 511.29592,445.61509 L 512.86022,437.85618 z M 515.3631,425.46694 C 517.92855,425.46694 520.11856,425.34179 519.49284,428.40782 C 518.74198,432.16213 517.24026,431.97442 513.98652,432.16213 L 515.3631,425.46694 z M 513.17308,451.30914 C 519.17999,451.30914 523.3723,448.61854 524.62374,442.17364 C 525.43718,438.29418 525.06174,436.60474 522.05829,434.66501 L 522.05829,434.60244 C 524.9366,433.16328 526.43833,430.72298 527.00147,427.90724 C 528.25291,421.58748 524.24831,419.77289 518.67941,419.77289 L 509.04334,419.77289 L 502.78614,451.30914 L 513.17308,451.30914 z M 530.5055,442.61164 C 529.19149,449.11912 532.25751,452.06 538.51471,452.06 C 546.08591,452.06 549.33965,447.93025 550.40337,442.61164 L 554.97112,419.77289 L 547.52506,419.77289 L 542.83217,443.3625 C 542.58188,444.73909 541.6433,446.36596 539.70357,446.36596 C 537.57613,446.36596 537.38841,445.11452 537.70127,443.61279 L 542.45674,419.77289 L 535.07325,419.77289 L 530.5055,442.61164 z M 555.84713,440.73448 L 555.15883,444.11337 C 554.3454,448.30569 556.47284,452.06 563.23061,452.06 C 569.36266,452.06 573.42983,448.74369 574.6187,442.67421 C 575.36956,438.79475 574.80642,436.72988 573.36726,435.10301 C 571.99068,433.53871 569.80066,432.41242 567.36036,430.66041 C 566.10892,429.65926 565.35806,428.6581 565.9212,426.78095 C 566.35921,425.40437 567.42293,424.59093 568.92466,424.6535 C 571.30239,424.84122 570.73924,427.40667 570.42638,429.22125 L 577.24672,429.22125 C 578.74845,423.27692 576.37071,419.02203 569.92581,419.02203 C 564.16919,419.02203 560.03944,422.02548 558.85058,427.96981 C 558.28743,430.72298 558.66286,432.66271 559.72658,434.28958 C 560.79031,435.85387 562.47975,437.10531 564.48205,438.41932 C 566.17149,439.60819 568.17379,440.60934 567.67322,443.23736 C 567.29779,444.86423 566.23406,446.36596 564.54462,446.36596 C 562.16689,446.36596 561.9166,444.80166 562.29203,442.98707 L 562.73004,440.73448 L 555.84713,440.73448"
         style="fill:#000000;fill-rule:nonzero;stroke:none"
         id="path4048" />
      <path
         d="M 349.4375,364.59375 C 321.82139,364.59376 301.20172,375.15974 295.34375,403.15625 C 292.68102,415.93728 294.28987,425.45884 298.09375,433.21875 L 351.71875,433.21875 C 340.45927,422.33969 328.99355,413.96853 331.65625,401.1875 C 333.25388,393.65584 335.89634,389.3125 343.65625,389.3125 C 350.73143,389.31251 352.25388,393.65583 350.65625,401.1875 L 347.9375,414.28125 L 383.75,414.28125 L 387.03125,398.59375 C 392.43275,372.80348 373.63014,364.59375 349.4375,364.59375 z M 195.625,367.625 L 181.84375,433.21875 L 217.6875,433.21875 L 231.4375,367.625 L 195.625,367.625 z M 250.46875,367.625 L 236.6875,433.21875 L 272.53125,433.21875 L 286.3125,367.625 L 250.46875,367.625 z M 410.09375,367.625 L 396.3125,433.21875 L 477.625,433.21875 C 486.22176,426.75218 490.5791,416.32196 492.9375,405.0625 C 500.69741,368.01277 476.80598,367.625 446.375,367.625 L 410.09375,367.625 z M 444.4375,389.59375 C 459.21966,389.46531 459.0268,395.90055 456.03125,410.09375 C 451.16228,433.29737 444.17929,429.56531 432.84375,430.25 L 441.28125,389.6875 C 442.40339,389.62093 443.45202,389.60231 444.4375,389.59375 z M 178.59375,448.71875 L 173.1875,474.4375 C 169.07932,493.98941 163.44166,524.96875 207.71875,524.96875 C 241.19284,524.96872 255.40993,510.65082 263.09375,477.9375 L 269.25,448.71875 L 233.4375,448.71875 L 227.125,478.78125 C 224.53836,491.10581 222.61291,500.21875 212.875,500.21875 C 203.59355,500.21875 205.50711,491.1058 208.09375,478.78125 L 214.40625,448.71875 L 178.59375,448.71875 z M 309.875,448.71875 C 322.04739,460.81507 336.29978,469.66404 332.34375,488.53125 C 330.44182,497.66053 326.17047,500.21875 320.3125,500.21875 C 313.69376,500.21875 311.41057,497.66055 313.3125,488.53125 L 316.96875,471.09375 L 281.125,471.09375 L 277.03125,490.5 C 271.4776,517.12712 292.10067,524.96875 315,524.96875 C 344.97451,524.96872 363.38256,511.49909 369.46875,482.4375 C 372.43577,468.13494 369.76702,457.39158 364.59375,448.71875 L 309.875,448.71875 z M 393.03125,448.71875 L 377.6875,521.90625 L 413.96875,521.90625 C 452.00749,521.90627 468.72394,520.38873 477.625,477.9375 C 480.05949,466.22159 481.45603,455.56572 477.5,448.71875 L 393.03125,448.71875 z M 427.1875,456.5 C 442.25083,456.49999 446.14072,456.71469 441.5,478.625 C 438.15257,494.60126 437.02346,501.53104 418.15625,499.78125 L 427.1875,456.5 z "
         transform="matrix(0.8224762,0,0,0.8224762,0,-36.771423)"
         style="fill:#1c4d9c;fill-rule:nonzero;stroke:none"
         id="path4050" />
      <path
         d="M 574.71875,391.96875 C 540.02074,391.96875 506.22074,413.54681 496.21875,441.125 L 180.1875,441.125 L 176.84375,456.78125 L 493.3125,456.78125 C 493.24977,481.4654 515.31661,500.09726 547.3125,500.21875 C 547.41738,500.21915 547.51991,500.21875 547.625,500.21875 L 624.78125,500.21875 L 654.59375,392.0625 L 574.78125,391.96875 C 574.76024,391.96873 574.73977,391.96875 574.71875,391.96875 z M 662.21875,407.5625 L 640.75,484.625 L 697.96875,484.625 L 717.96875,407.5625 L 662.21875,407.5625 z M 678.03125,423.25 L 691.5625,423.25 L 688,438.15625 L 674.4375,438.15625 L 678.03125,423.25 z M 670.8125,454.0625 L 684.34375,454.0625 L 680.78125,468.96875 L 667.21875,468.96875 L 670.8125,454.0625 z "
         transform="matrix(0.8224762,0,0,0.8224762,0,-36.771423)"
         style="fill:#000000;fill-rule:nonzero;stroke:none"
         id="path4064" />
    </g>
  </g>
</svg>
